<?xml version="1.0" encoding="UTF-8"?>
<!DOCTYPE svg PUBLIC "-//W3C//DTD SVG 1.1//EN" "http://www.w3.org/Graphics/SVG/1.1/DTD/svg11.dtd">
<!-- Creator: CorelDRAW 2020 (64 Bit) -->
<svg xmlns="http://www.w3.org/2000/svg" xml:space="preserve" width="664px" height="683px" version="1.1" style="shape-rendering:geometricPrecision; text-rendering:geometricPrecision; image-rendering:optimizeQuality; fill-rule:evenodd; clip-rule:evenodd"
viewBox="0 0 669.11 688.46"
 xmlns:xlink="http://www.w3.org/1999/xlink"
 xmlns:xodm="http://www.corel.com/coreldraw/odm/2003">
 <defs>
  <style type="text/css">
   <![CDATA[
    .fil0 {fill:#D6D0BE;fill-rule:nonzero}
    .fil1 {fill:#D49E55;fill-rule:nonzero}
    .fil2 {fill:#D49C55;fill-rule:nonzero}
   ]]>
  </style>
 </defs>
 <g id="Layer_x0020_1">
  <metadata id="CorelCorpID_0Corel-Layer"/>
  <path class="fil0" d="M43.27 440.18c12.07,0 22.13,-2.72 30.18,-8.17 8.05,-5.46 14.07,-12.74 18.05,-21.87 3.99,-9.12 5.98,-19.26 5.98,-30.41 0,-11.08 -1.99,-21.19 -5.98,-30.31 -3.98,-9.13 -10,-16.42 -18.05,-21.87 -8.05,-5.45 -18.11,-8.18 -30.18,-8.18l-24.99 0 0 120.81 24.99 0zm72.58 -60.45c0,11.94 -2.71,22.85 -8.13,32.71 -5.42,9.86 -13.37,17.74 -23.84,23.65 -10.47,5.92 -23.37,9.08 -38.68,9.51l-26.92 0 -14.6 0 -3.68 0 0 -131.74 3.68 0 14.6 0 26.92 0 0 0.09c15.31,0.37 28.21,3.51 38.68,9.42 10.47,5.91 18.42,13.79 23.84,23.65 5.42,9.87 8.13,20.77 8.13,32.71z"/>
  <polygon class="fil0" points="154.47,313.86 172.94,313.86 172.94,445.6 154.47,445.6 "/>
  <polygon class="fil0" points="273.52,437.79 318.81,313.86 324.69,313.86 276.46,445.6 276.37,445.6 270.67,445.6 257.62,445.6 209.48,313.86 228.23,313.86 "/>
  <polygon class="fil0" points="361.51,313.86 379.98,313.86 379.98,445.6 361.51,445.6 "/>
  <polygon class="fil0" points="513.38,417.22 513.38,313.86 518.89,313.86 518.89,445.6 513.38,445.6 425.27,342.15 425.27,445.6 419.85,445.6 419.85,313.86 425.27,313.86 "/>
  <path class="fil0" d="M583.58 380.47l43 0 -21.5 -58.8 -21.5 58.8zm24.34 -66.61l13.05 0 48.14 131.74 -18.74 0 -21.87 -59.72 -46.94 0 -21.78 59.72 -5.87 0 48.14 -131.74 0.18 0 5.69 0z"/>
  <polygon class="fil0" points="43.27,480.64 61.55,480.64 104.83,480.64 104.83,486.15 61.55,486.15 61.55,612.38 43.27,612.38 43.27,486.15 0,486.15 0,480.64 "/>
  <polygon class="fil0" points="161.23,480.64 165.92,480.64 236.93,480.64 236.93,486.15 165.92,486.15 165.92,545.59 229.21,545.59 229.21,551.1 165.92,551.1 165.92,606.87 236.93,606.87 236.93,612.38 165.92,612.38 161.23,612.38 147.45,612.38 147.45,480.64 "/>
  <path class="fil0" d="M296.77 486.06l0 58.52 31.97 0c5.4,0 10.29,-1.33 14.7,-4 4.41,-2.66 7.93,-6.2 10.57,-10.61 2.63,-4.41 3.95,-9.31 3.95,-14.7 0,-5.38 -1.32,-10.29 -3.95,-14.69 -2.64,-4.41 -6.16,-7.94 -10.57,-10.57 -4.41,-2.64 -9.3,-3.95 -14.7,-3.95l-31.97 0zm31.61 63.94l57.05 62.47 -24.62 0 -57.24 -62.47 -6.8 0 0 62.38 -18.28 0 0 -131.74 3.68 0 0 -0.09 47.13 0c10.9,0.12 19.81,1.73 26.73,4.82 6.92,3.09 12.02,7.25 15.3,12.5 3.27,5.23 4.91,11.03 4.91,17.4 0,6.38 -1.64,12.18 -4.91,17.41 -3.28,5.24 -8.38,9.41 -15.3,12.5 -6.92,3.09 -15.83,4.7 -26.73,4.82l-0.92 0z"/>
  <path class="fil0" d="M436.55 486.06l0 58.52 31.97 0c5.39,0 10.29,-1.33 14.7,-4 4.41,-2.66 7.93,-6.2 10.56,-10.61 2.64,-4.41 3.95,-9.31 3.95,-14.7 0,-5.38 -1.31,-10.29 -3.95,-14.69 -2.63,-4.41 -6.15,-7.94 -10.56,-10.57 -4.41,-2.64 -9.31,-3.95 -14.7,-3.95l-31.97 0zm31.6 63.94l57.05 62.47 -24.62 0 -57.23 -62.47 -6.8 0 0 62.38 -18.29 0 0 -131.74 3.68 0 0 -0.09 47.13 0c10.9,0.12 19.81,1.73 26.73,4.82 6.92,3.09 12.02,7.25 15.3,12.5 3.28,5.23 4.91,11.03 4.91,17.4 0,6.38 -1.63,12.18 -4.91,17.41 -3.28,5.24 -8.38,9.41 -15.3,12.5 -6.92,3.09 -15.83,4.7 -26.73,4.82l-0.92 0z"/>
  <path class="fil0" d="M583.58 547.25l42.99 0 -21.49 -58.8 -21.5 58.8zm24.35 -66.61l13.04 0 48.14 131.74 -18.74 0 -21.86 -59.72 -46.95 0 -21.77 59.72 -5.88 0 48.14 -131.74 0.18 0 5.7 0z"/>
  <path class="fil1" d="M0 657.43c0,-0.45 0.4,-0.86 0.85,-0.86l4.18 0c0.49,0 0.86,0.41 0.86,0.86l0 11.9 14.64 0 0 -11.9c0,-0.45 0.36,-0.86 0.85,-0.86l4.14 0c0.45,0 0.85,0.41 0.85,0.86l0 29.73c0,0.45 -0.4,0.86 -0.85,0.86l-4.14 0c-0.49,0 -0.85,-0.41 -0.85,-0.86l0 -12.39 -14.64 0 0 12.39c0,0.45 -0.37,0.86 -0.86,0.86l-4.18 0c-0.45,0 -0.85,-0.41 -0.85,-0.86l0 -29.73z"/>
  <path class="fil1" d="M57 657.43c0,-0.45 0.36,-0.86 0.85,-0.86l18.28 0c0.49,0 0.85,0.41 0.85,0.86l0 3.68c0,0.45 -0.36,0.86 -0.85,0.86l-13.3 0 0 7.36 11.1 0c0.45,0 0.85,0.41 0.85,0.85l0 3.73c0,0.5 -0.4,0.86 -0.85,0.86l-11.1 0 0 7.86 13.3 0c0.49,0 0.85,0.4 0.85,0.85l0 3.68c0,0.45 -0.36,0.86 -0.85,0.86l-18.28 0c-0.49,0 -0.85,-0.41 -0.85,-0.86l0 -29.73z"/>
  <path class="fil1" d="M121.18 677.28l-4.5 -9.88 -0.13 0 -4.4 9.88 9.03 0zm-19.41 9.57l13.97 -30.23c0.14,-0.27 0.36,-0.49 0.77,-0.49l0.45 0c0.45,0 0.63,0.22 0.76,0.49l13.83 30.23c0.28,0.59 -0.09,1.17 -0.76,1.17l-3.91 0c-0.67,0 -0.99,-0.27 -1.3,-0.9l-2.2 -4.85 -13.43 0 -2.2 4.85c-0.18,0.45 -0.59,0.9 -1.31,0.9l-3.9 0c-0.68,0 -1.03,-0.58 -0.77,-1.17z"/>
  <path class="fil1" d="M158.09 657.43c0,-0.45 0.36,-0.86 0.86,-0.86l4.13 0c0.45,0 0.85,0.41 0.85,0.86l0 25.2 11.46 0c0.49,0 0.85,0.4 0.85,0.85l0 3.68c0,0.45 -0.36,0.86 -0.85,0.86l-16.44 0c-0.5,0 -0.86,-0.41 -0.86,-0.86l0 -29.73z"/>
  <path class="fil1" d="M205.66 661.97l-6.87 0c-0.5,0 -0.86,-0.41 -0.86,-0.86l0 -3.68c0,-0.45 0.36,-0.86 0.86,-0.86l19.63 0c0.49,0 0.85,0.41 0.85,0.86l0 3.68c0,0.45 -0.36,0.86 -0.85,0.86l-6.88 0 0 25.2c0,0.44 -0.4,0.85 -0.85,0.85l-4.18 0c-0.45,0 -0.85,-0.41 -0.85,-0.85l0 -25.2z"/>
  <path class="fil1" d="M246.39 657.43c0,-0.45 0.4,-0.86 0.85,-0.86l4.18 0c0.5,0 0.86,0.41 0.86,0.86l0 11.9 14.64 0 0 -11.9c0,-0.45 0.36,-0.86 0.85,-0.86l4.14 0c0.45,0 0.85,0.41 0.85,0.86l0 29.73c0,0.45 -0.4,0.86 -0.85,0.86l-4.14 0c-0.49,0 -0.85,-0.41 -0.85,-0.86l0 -12.39 -14.64 0 0 12.39c0,0.45 -0.36,0.86 -0.86,0.86l-4.18 0c-0.45,0 -0.85,-0.41 -0.85,-0.86l0 -29.73z"/>
  <path class="fil1" d="M309.4 672.88l-10.23 -15c-0.37,-0.59 0,-1.31 0.71,-1.31l4.59 0c0.35,0 0.58,0.23 0.71,0.41l7.19 10.33 7.19 -10.33c0.13,-0.18 0.35,-0.41 0.71,-0.41l4.63 0c0.72,0 1.08,0.72 0.72,1.31l-10.37 14.95 0 14.33c0,0.45 -0.41,0.86 -0.86,0.86l-4.13 0c-0.5,0 -0.86,-0.41 -0.86,-0.86l0 -14.28z"/>
  <path class="fil1" d="M387.69 656.8c0.04,-0.36 0.31,-0.67 0.81,-0.67l0.71 0c0.36,0 0.64,0.18 0.77,0.44l9.88 21.21 0.14 0 9.88 -21.21c0.13,-0.26 0.36,-0.44 0.76,-0.44l0.72 0c0.49,0 0.76,0.31 0.81,0.67l5.3 30.18c0.13,0.63 -0.22,1.04 -0.81,1.04l-4.09 0c-0.4,0 -0.76,-0.36 -0.85,-0.68l-2.65 -17.02 -0.14 0 -7.85 17.65c-0.1,0.27 -0.37,0.49 -0.77,0.49l-0.81 0c-0.4,0 -0.63,-0.22 -0.76,-0.49l-7.95 -17.65 -0.14 0 -2.6 17.02c-0.05,0.32 -0.41,0.68 -0.81,0.68l-4.04 0c-0.59,0 -0.95,-0.41 -0.86,-1.04l5.35 -30.18z"/>
  <path class="fil1" d="M461.39 677.28l-4.49 -9.88 -0.14 0 -4.4 9.88 9.03 0zm-19.4 9.57l13.97 -30.23c0.13,-0.27 0.36,-0.49 0.76,-0.49l0.45 0c0.45,0 0.63,0.22 0.76,0.49l13.83 30.23c0.27,0.59 -0.08,1.17 -0.76,1.17l-3.91 0c-0.67,0 -0.98,-0.27 -1.3,-0.9l-2.2 -4.85 -13.43 0 -2.2 4.85c-0.18,0.45 -0.59,0.9 -1.3,0.9l-3.91 0c-0.68,0 -1.04,-0.58 -0.76,-1.17z"/>
  <path class="fil1" d="M511.51 670.91c2.38,0 4.45,-2.07 4.45,-4.59 0,-2.38 -2.07,-4.35 -4.45,-4.35l-7.32 0 0 8.94 7.32 0zm-13.21 -13.48c0,-0.45 0.37,-0.86 0.86,-0.86l12.85 0c5.39,0 9.79,4.32 9.79,9.66 0,4.13 -2.74,7.5 -6.65,9.08l6.16 11.41c0.31,0.58 0,1.3 -0.77,1.3l-4.72 0c-0.4,0 -0.62,-0.23 -0.72,-0.41l-5.97 -11.9 -4.98 0 0 11.45c0,0.45 -0.41,0.86 -0.86,0.86l-4.13 0c-0.49,0 -0.86,-0.41 -0.86,-0.86l0 -29.73z"/>
  <path class="fil1" d="M550.67 657.65c0,-0.58 0.45,-1.08 1.08,-1.08l3.96 0c0.58,0 1.08,0.5 1.08,1.08l0 12.13 11.31 -12.76c0.18,-0.22 0.45,-0.45 0.86,-0.45l4.49 0c0.85,0 1.3,0.95 0.71,1.62l-11.72 13.21 12.58 15.04c0.45,0.58 0.09,1.58 -0.81,1.58l-4.9 0c-0.45,0 -0.71,-0.18 -0.8,-0.32l-11.72 -14.46 0 13.7c0,0.58 -0.5,1.08 -1.08,1.08l-3.96 0c-0.63,0 -1.08,-0.5 -1.08,-1.08l0 -29.29z"/>
  <path class="fil1" d="M602.41 657.43c0,-0.45 0.36,-0.86 0.86,-0.86l18.28 0c0.5,0 0.85,0.41 0.85,0.86l0 3.68c0,0.45 -0.35,0.86 -0.85,0.86l-13.3 0 0 7.36 11.1 0c0.45,0 0.85,0.41 0.85,0.85l0 3.73c0,0.5 -0.4,0.86 -0.85,0.86l-11.1 0 0 7.86 13.3 0c0.5,0 0.85,0.4 0.85,0.85l0 3.68c0,0.45 -0.35,0.86 -0.85,0.86l-18.28 0c-0.5,0 -0.86,-0.41 -0.86,-0.86l0 -29.73z"/>
  <path class="fil1" d="M655.5 661.97l-6.87 0c-0.5,0 -0.85,-0.41 -0.85,-0.86l0 -3.68c0,-0.45 0.35,-0.86 0.85,-0.86l19.63 0c0.49,0 0.85,0.41 0.85,0.86l0 3.68c0,0.45 -0.36,0.86 -0.85,0.86l-6.88 0 0 25.2c0,0.44 -0.4,0.85 -0.85,0.85l-4.18 0c-0.45,0 -0.85,-0.41 -0.85,-0.85l0 -25.2z"/>
  <path class="fil2" d="M395.47 111.44c-33.47,19.02 -54.59,53.58 -56.21,92.02 34.33,-2.42 61.51,-31.12 61.51,-66.05 0,-9.05 -1.78,-17.76 -5.3,-25.97zm-60.91 101.39c-2.54,0 -4.61,-2.06 -4.61,-4.6 0,-45.4 25.1,-86.48 65.51,-107.24 2.26,-1.17 5.04,-0.28 6.2,1.99 5.52,10.74 8.32,22.32 8.32,34.43 0,41.59 -33.83,75.42 -75.42,75.42z"/>
  <path class="fil2" d="M273.64 111.44c-3.52,8.21 -5.3,16.92 -5.3,25.97 0,34.93 27.19,63.63 61.51,66.05 -1.62,-38.44 -22.73,-73 -56.21,-92.02zm60.92 101.39c-41.59,0 -75.43,-33.83 -75.43,-75.42 0,-12.11 2.8,-23.69 8.33,-34.43 1.15,-2.27 3.93,-3.16 6.19,-1.99 40.41,20.76 65.51,61.84 65.51,107.24 0,2.54 -2.06,4.6 -4.6,4.6z"/>
  <path class="fil2" d="M334.56 254.15c-2.54,0 -4.61,-2.06 -4.61,-4.6l0 -41.32c0,-2.55 2.07,-4.61 4.61,-4.61 2.54,0 4.6,2.06 4.6,4.61l0 41.32c0,2.54 -2.06,4.6 -4.6,4.6z"/>
  <path class="fil2" d="M341.74 274.81l-14.37 0c-2.54,0 -4.61,-2.06 -4.61,-4.6 0,-2.55 2.07,-4.6 4.61,-4.6l14.37 0c2.54,0 4.61,2.05 4.61,4.6 0,2.54 -2.07,4.6 -4.61,4.6z"/>
  <path class="fil2" d="M365.8 133.69c-2.04,0 -3.9,-1.36 -4.45,-3.42 -3.22,-12.12 -14.24,-20.58 -26.79,-20.58 -12.56,0 -23.58,8.46 -26.79,20.57 -0.66,2.46 -3.18,3.92 -5.64,3.27 -2.46,-0.66 -3.92,-3.18 -3.27,-5.63 4.29,-16.15 18.97,-27.42 35.7,-27.42 16.72,0 31.4,11.27 35.69,27.42 0.65,2.46 -0.81,4.98 -3.27,5.63 -0.39,0.11 -0.79,0.16 -1.18,0.16z"/>
  <path class="fil2" d="M263.54 254.25c-0.85,0 -1.7,-0.23 -2.46,-0.72 -40.03,-25.38 -63.93,-68.79 -63.93,-116.12 0,-75.77 61.64,-137.41 137.41,-137.41 75.76,0 137.4,61.64 137.4,137.41 0,47.18 -23.78,90.52 -63.61,115.92 -2.14,1.37 -4.99,0.74 -6.35,-1.4 -1.37,-2.15 -0.74,-4.99 1.4,-6.36 37.16,-23.71 59.36,-64.14 59.36,-108.16 0,-70.69 -57.51,-128.2 -128.2,-128.2 -70.69,0 -128.2,57.51 -128.2,128.2 0,44.16 22.3,84.66 59.65,108.35 2.14,1.36 2.78,4.2 1.42,6.35 -0.88,1.38 -2.37,2.14 -3.89,2.14z"/>
  <path class="fil2" d="M263.54 254.06c-1.52,0 -3.01,-0.76 -3.89,-2.14 -1.36,-2.15 -0.73,-5 1.43,-6.36 21.95,-13.92 47.36,-21.28 73.48,-21.28 26.11,0 51.52,7.36 73.48,21.28 2.14,1.36 2.78,4.21 1.42,6.36 -1.36,2.14 -4.2,2.78 -6.36,1.42 -20.47,-12.99 -44.17,-19.85 -68.54,-19.85 -24.37,0 -48.08,6.86 -68.55,19.85 -0.77,0.48 -1.62,0.72 -2.47,0.72z"/>
  <path class="fil2" d="M383.65 265.44c-0.68,0 -1.37,-0.15 -2.02,-0.46 -14.72,-7.19 -30.56,-10.83 -47.07,-10.83 -16.52,0 -32.35,3.64 -47.08,10.83 -2.28,1.11 -5.04,0.16 -6.16,-2.13 -1.11,-2.28 -0.16,-5.04 2.12,-6.15 16,-7.8 33.19,-11.76 51.12,-11.76 17.92,0 35.12,3.96 51.11,11.76 2.29,1.11 3.23,3.87 2.12,6.15 -0.8,1.64 -2.44,2.59 -4.14,2.59z"/>
 </g>
</svg>
