<?xml version="1.0" encoding="UTF-8"?>
<!DOCTYPE svg PUBLIC "-//W3C//DTD SVG 1.1//EN" "http://www.w3.org/Graphics/SVG/1.1/DTD/svg11.dtd">
<!-- Creator: CorelDRAW 2020 (64 Bit) -->
<svg xmlns="http://www.w3.org/2000/svg" xml:space="preserve" width="1729px" height="331px" version="1.1" style="shape-rendering:geometricPrecision; text-rendering:geometricPrecision; image-rendering:optimizeQuality; fill-rule:evenodd; clip-rule:evenodd"
viewBox="0 0 1735.02 332.44"
 xmlns:xlink="http://www.w3.org/1999/xlink"
 xmlns:xodm="http://www.corel.com/coreldraw/odm/2003">
 <defs>
  <style type="text/css">
   <![CDATA[
    .fil1 {fill:#D9D1BE;fill-rule:nonzero}
    .fil0 {fill:#D6D0BE;fill-rule:nonzero}
    .fil2 {fill:#D49E55;fill-rule:nonzero}
    .fil3 {fill:#D49C55;fill-rule:nonzero}
   ]]>
  </style>
 </defs>
 <g id="Layer_x0020_1">
  <metadata id="CorelCorpID_0Corel-Layer"/>
  <path class="fil0" d="M45.68 181.28c12.74,0 23.36,-2.88 31.86,-8.63 8.5,-5.75 14.85,-13.45 19.06,-23.08 4.2,-9.64 6.3,-20.34 6.3,-32.1 0,-11.71 -2.1,-22.38 -6.3,-32.01 -4.21,-9.64 -10.56,-17.33 -19.06,-23.08 -8.5,-5.76 -19.12,-8.64 -31.86,-8.64l-26.38 0 0 127.54 26.38 0zm76.62 -63.81c0,12.6 -2.86,24.11 -8.58,34.52 -5.73,10.41 -14.12,18.74 -25.17,24.98 -11.06,6.23 -24.67,9.58 -40.83,10.03l-47.72 0 0 -139.08 47.72 0 0 0.1c16.16,0.39 29.77,3.7 40.83,9.94 11.05,6.24 19.44,14.57 25.17,24.98 5.72,10.41 8.58,21.91 8.58,34.53z"/>
  <polygon class="fil0" points="163.07,47.92 182.57,47.92 182.57,187 163.07,187 "/>
  <polygon class="fil0" points="288.75,178.76 336.56,47.92 342.77,47.92 291.85,187 291.76,187 271.97,187 221.15,47.92 240.94,47.92 "/>
  <polygon class="fil0" points="381.64,47.92 401.14,47.92 401.14,187 381.64,187 "/>
  <polygon class="fil0" points="541.97,157.04 541.97,47.92 547.79,47.92 547.79,187 541.97,187 448.96,77.8 448.96,187 443.23,187 443.23,47.92 448.96,47.92 "/>
  <path class="fil0" d="M616.08 118.24l45.39 0 -22.69 -62.07 -22.7 62.07zm39.47 -70.32l50.83 139.08 -19.79 0 -23.08 -63.04 -49.56 0 -22.99 63.04 -6.21 0 50.83 -139.08 0.19 0 19.78 0z"/>
  <polygon class="fil1" points="1139.3,47.92 1139.3,53.74 1093.62,53.74 1093.62,187 1074.33,187 1074.33,53.74 1028.64,53.74 1028.64,47.92 "/>
  <polygon class="fil1" points="1278.77,47.92 1278.77,53.74 1203.79,53.74 1203.79,116.49 1270.62,116.49 1270.62,122.31 1203.79,122.31 1203.79,181.19 1278.77,181.19 1278.77,187 1184.3,187 1184.3,47.92 "/>
  <path class="fil1" d="M1341.95 53.65l0 61.78 33.75 0c5.69,0 10.86,-1.41 15.52,-4.22 4.65,-2.81 8.37,-6.55 11.15,-11.2 2.78,-4.66 4.17,-9.83 4.17,-15.52 0,-5.69 -1.39,-10.86 -4.17,-15.52 -2.78,-4.66 -6.5,-8.37 -11.15,-11.15 -4.66,-2.78 -9.83,-4.17 -15.52,-4.17l-33.75 0zm33.36 67.5l60.23 65.95 -25.99 0 -60.42 -65.95 -7.18 0 0 65.85 -19.31 0 0 -139.08 53.64 -0.09c11.51,0.13 20.91,1.82 28.23,5.09 7.3,3.26 12.68,7.66 16.14,13.19 3.46,5.53 5.19,11.65 5.19,18.38 0,6.72 -1.73,12.85 -5.19,18.38 -3.46,5.53 -8.84,9.92 -16.14,13.19 -7.32,3.26 -16.72,4.96 -28.23,5.09l-0.97 0z"/>
  <path class="fil1" d="M1489.51 53.65l0 61.78 33.74 0c5.7,0 10.87,-1.41 15.52,-4.22 4.66,-2.81 8.38,-6.55 11.16,-11.2 2.78,-4.66 4.17,-9.83 4.17,-15.52 0,-5.69 -1.39,-10.86 -4.17,-15.52 -2.78,-4.66 -6.5,-8.37 -11.16,-11.15 -4.65,-2.78 -9.82,-4.17 -15.52,-4.17l-33.74 0zm33.36 67.5l60.23 65.95 -26 0 -60.42 -65.95 -7.17 0 0 65.85 -19.3 0 0 -139.08 3.88 0 0 -0.09 49.75 0c11.51,0.13 20.92,1.82 28.22,5.09 7.31,3.26 12.69,7.66 16.15,13.19 3.46,5.53 5.19,11.65 5.19,18.38 0,6.72 -1.73,12.85 -5.19,18.38 -3.46,5.53 -8.84,9.92 -16.15,13.19 -7.3,3.26 -16.71,4.96 -28.22,5.09l-0.97 0z"/>
  <path class="fil1" d="M1644.72 118.24l45.39 0 -22.69 -62.07 -22.7 62.07zm39.48 -70.32l50.82 139.08 -19.78 0 -23.09 -63.04 -49.56 0 -22.98 63.04 -6.21 0 50.82 -139.08 0.2 0 19.78 0z"/>
  <path class="fil2" d="M389.66 288.11c0,-0.64 0.57,-1.22 1.22,-1.22l5.96 0c0.71,0 1.22,0.58 1.22,1.22l0 17 20.92 0 0 -17c0,-0.64 0.51,-1.22 1.22,-1.22l5.9 0c0.64,0 1.22,0.58 1.22,1.22l0 42.47c0,0.64 -0.58,1.22 -1.22,1.22l-5.9 0c-0.71,0 -1.22,-0.58 -1.22,-1.22l0 -17.71 -20.92 0 0 17.71c0,0.64 -0.51,1.22 -1.22,1.22l-5.96 0c-0.65,0 -1.22,-0.58 -1.22,-1.22l0 -42.47z"/>
  <path class="fil2" d="M471.06 288.11c0,-0.64 0.52,-1.22 1.22,-1.22l26.11 0c0.71,0 1.22,0.58 1.22,1.22l0 5.26c0,0.64 -0.51,1.22 -1.22,1.22l-18.99 0 0 10.52 15.85 0c0.64,0 1.22,0.58 1.22,1.22l0 5.32c0,0.71 -0.58,1.22 -1.22,1.22l-15.85 0 0 11.23 18.99 0c0.71,0 1.22,0.58 1.22,1.22l0 5.26c0,0.64 -0.51,1.22 -1.22,1.22l-26.11 0c-0.7,0 -1.22,-0.58 -1.22,-1.22l0 -42.47z"/>
  <path class="fil2" d="M562.74 316.46l-6.42 -14.11 -0.19 0 -6.29 14.11 12.9 0zm-27.72 13.67l19.95 -43.18c0.19,-0.38 0.52,-0.7 1.09,-0.7l0.65 0c0.64,0 0.89,0.32 1.08,0.7l19.77 43.18c0.38,0.83 -0.13,1.67 -1.09,1.67l-5.58 0c-0.97,0 -1.42,-0.39 -1.87,-1.28l-3.14 -6.93 -19.18 0 -3.15 6.93c-0.25,0.64 -0.83,1.28 -1.86,1.28l-5.58 0c-0.96,0 -1.48,-0.84 -1.09,-1.67z"/>
  <path class="fil2" d="M615.46 288.11c0,-0.64 0.52,-1.22 1.22,-1.22l5.9 0c0.64,0 1.22,0.58 1.22,1.22l0 35.99 16.37 0c0.7,0 1.21,0.58 1.21,1.22l0 5.26c0,0.64 -0.51,1.22 -1.21,1.22l-23.49 0c-0.7,0 -1.22,-0.58 -1.22,-1.22l0 -42.47z"/>
  <path class="fil2" d="M683.4 294.59l-9.82 0c-0.7,0 -1.22,-0.58 -1.22,-1.22l0 -5.26c0,-0.65 0.52,-1.22 1.22,-1.22l28.04 0c0.71,0 1.22,0.57 1.22,1.22l0 5.26c0,0.64 -0.51,1.22 -1.22,1.22l-9.82 0 0 35.99c0,0.64 -0.57,1.22 -1.21,1.22l-5.97 0c-0.64,0 -1.22,-0.58 -1.22,-1.22l0 -35.99z"/>
  <path class="fil2" d="M741.58 288.11c0,-0.64 0.58,-1.22 1.22,-1.22l5.97 0c0.71,0 1.22,0.58 1.22,1.22l0 17 20.91 0 0 -17c0,-0.64 0.52,-1.22 1.22,-1.22l5.91 0c0.63,0 1.21,0.58 1.21,1.22l0 42.47c0,0.64 -0.58,1.22 -1.21,1.22l-5.91 0c-0.7,0 -1.22,-0.58 -1.22,-1.22l0 -17.71 -20.91 0 0 17.71c0,0.64 -0.51,1.22 -1.22,1.22l-5.97 0c-0.64,0 -1.22,-0.58 -1.22,-1.22l0 -42.47z"/>
  <path class="fil2" d="M831.59 310.18l-14.64 -21.43c-0.51,-0.84 0,-1.86 1.03,-1.86l6.55 0c0.51,0 0.83,0.32 1.03,0.58l10.26 14.75 10.26 -14.75c0.2,-0.26 0.52,-0.58 1.03,-0.58l6.61 0c1.03,0 1.54,1.02 1.03,1.86l-14.82 21.36 0 20.47c0,0.64 -0.58,1.22 -1.22,1.22l-5.9 0c-0.71,0 -1.22,-0.58 -1.22,-1.22l0 -20.4z"/>
  <path class="fil2" d="M943.4 287.21c0.06,-0.52 0.44,-0.96 1.15,-0.96l1.03 0c0.52,0 0.9,0.25 1.09,0.64l14.11 30.28 0.2 0 14.11 -30.28c0.2,-0.39 0.52,-0.64 1.09,-0.64l1.03 0c0.7,0 1.09,0.44 1.15,0.96l7.57 43.12c0.2,0.89 -0.31,1.47 -1.15,1.47l-5.84 0c-0.58,0 -1.09,-0.52 -1.22,-0.96l-3.78 -24.32 -0.19 0 -11.24 25.21c-0.12,0.39 -0.51,0.71 -1.09,0.71l-1.15 0c-0.58,0 -0.9,-0.32 -1.09,-0.71l-11.35 -25.21 -0.2 0 -3.72 24.32c-0.07,0.44 -0.58,0.96 -1.15,0.96l-5.78 0c-0.83,0 -1.34,-0.58 -1.22,-1.47l7.64 -43.12z"/>
  <path class="fil2" d="M1048.67 316.46l-6.42 -14.11 -0.19 0 -6.28 14.11 12.89 0zm-27.72 13.67l19.96 -43.18c0.19,-0.38 0.51,-0.7 1.08,-0.7l0.65 0c0.64,0 0.89,0.32 1.09,0.7l19.76 43.18c0.38,0.83 -0.13,1.67 -1.09,1.67l-5.58 0c-0.96,0 -1.41,-0.39 -1.86,-1.28l-3.15 -6.93 -19.18 0 -3.14 6.93c-0.26,0.64 -0.84,1.28 -1.86,1.28l-5.59 0c-0.96,0 -1.47,-0.84 -1.09,-1.67z"/>
  <path class="fil2" d="M1120.26 307.36c3.4,0 6.35,-2.96 6.35,-6.55 0,-3.4 -2.95,-6.22 -6.35,-6.22l-10.46 0 0 12.77 10.46 0zm-18.86 -19.25c0,-0.64 0.51,-1.22 1.22,-1.22l18.35 0c7.7,0 13.98,6.16 13.98,13.79 0,5.9 -3.91,10.72 -9.49,12.96l8.79 16.3c0.45,0.83 0,1.86 -1.09,1.86l-6.74 0c-0.58,0 -0.9,-0.32 -1.03,-0.58l-8.53 -17 -7.12 0 0 16.36c0,0.64 -0.58,1.22 -1.22,1.22l-5.9 0c-0.71,0 -1.22,-0.58 -1.22,-1.22l0 -42.47z"/>
  <path class="fil2" d="M1176.2 288.43c0,-0.84 0.64,-1.54 1.53,-1.54l5.65 0c0.83,0 1.54,0.7 1.54,1.54l0 17.32 16.17 -18.22c0.26,-0.32 0.64,-0.64 1.22,-0.64l6.42 0c1.21,0 1.86,1.35 1.02,2.31l-16.75 18.86 17.97 21.49c0.64,0.83 0.13,2.25 -1.15,2.25l-7 0c-0.64,0 -1.03,-0.26 -1.15,-0.45l-16.75 -20.66 0 19.57c0,0.83 -0.71,1.54 -1.54,1.54l-5.65 0c-0.89,0 -1.53,-0.71 -1.53,-1.54l0 -41.83z"/>
  <path class="fil2" d="M1250.1 288.11c0,-0.64 0.51,-1.22 1.22,-1.22l26.11 0c0.71,0 1.22,0.58 1.22,1.22l0 5.26c0,0.64 -0.51,1.22 -1.22,1.22l-18.99 0 0 10.52 15.84 0c0.64,0 1.22,0.58 1.22,1.22l0 5.32c0,0.71 -0.58,1.22 -1.22,1.22l-15.84 0 0 11.23 18.99 0c0.71,0 1.22,0.58 1.22,1.22l0 5.26c0,0.64 -0.51,1.22 -1.22,1.22l-26.11 0c-0.71,0 -1.22,-0.58 -1.22,-1.22l0 -42.47z"/>
  <path class="fil2" d="M1325.92 294.59l-9.81 0c-0.71,0 -1.22,-0.58 -1.22,-1.22l0 -5.26c0,-0.65 0.51,-1.22 1.22,-1.22l28.03 0c0.71,0 1.22,0.57 1.22,1.22l0 5.26c0,0.64 -0.51,1.22 -1.22,1.22l-9.81 0 0 35.99c0,0.64 -0.58,1.22 -1.22,1.22l-5.97 0c-0.64,0 -1.22,-0.58 -1.22,-1.22l0 -35.99z"/>
  <path class="fil3" d="M923.21 94.82c-29.03,16.36 -47.31,46.28 -48.6,79.54 29.7,-1.93 53.28,-26.71 53.28,-56.9 0,-7.89 -1.57,-15.49 -4.68,-22.64zm-52.34 87c-2.03,0 -3.66,-1.64 -3.66,-3.67 0,-38.79 21.44,-73.91 55.97,-91.64 1.81,-0.93 4.02,-0.22 4.95,1.58 4.71,9.17 7.09,19.05 7.09,29.37 0,35.49 -28.86,64.36 -64.35,64.36z"/>
  <path class="fil3" d="M818.54 94.82c-3.12,7.15 -4.69,14.75 -4.69,22.64 0,30.19 23.58,54.97 53.28,56.9 -1.29,-33.26 -19.57,-63.18 -48.59,-79.54zm52.33 87c-35.49,0 -64.35,-28.87 -64.35,-64.36 0,-10.32 2.39,-20.21 7.1,-29.37 0.93,-1.8 3.13,-2.51 4.94,-1.58 34.53,17.73 55.97,52.85 55.97,91.64 0,2.03 -1.64,3.67 -3.66,3.67z"/>
  <path class="fil3" d="M870.87 217.22c-2.02,0 -3.67,-1.64 -3.67,-3.66l0 -35.41c0,-2.02 1.65,-3.67 3.67,-3.67 2.02,0 3.67,1.65 3.67,3.67l0 35.41c0,2.02 -1.65,3.66 -3.67,3.66z"/>
  <path class="fil3" d="M877.03 234.93l-12.31 0c-2.03,0 -3.67,-1.65 -3.67,-3.67 0,-2.02 1.64,-3.66 3.67,-3.66l12.31 0c2.02,0 3.67,1.64 3.67,3.66 0,2.02 -1.65,3.67 -3.67,3.67z"/>
  <path class="fil3" d="M897.64 114c-1.62,0 -3.1,-1.08 -3.54,-2.73 -2.79,-10.51 -12.34,-17.84 -23.23,-17.84 -10.88,0 -20.43,7.33 -23.23,17.84 -0.52,1.96 -2.53,3.11 -4.48,2.6 -1.96,-0.52 -3.12,-2.53 -2.6,-4.49 3.64,-13.71 16.11,-23.28 30.31,-23.28 14.21,0 26.67,9.58 30.32,23.29 0.52,1.96 -0.65,3.97 -2.61,4.49 -0.31,0.08 -0.63,0.12 -0.94,0.12z"/>
  <path class="fil3" d="M810.01 217.3c-0.67,0 -1.35,-0.18 -1.96,-0.56 -34.21,-21.7 -54.64,-58.81 -54.64,-99.27 0,-64.77 52.69,-117.47 117.46,-117.47 64.77,0 117.46,52.7 117.46,117.47 0,40.33 -20.32,77.38 -54.37,99.1 -1.71,1.08 -3.98,0.58 -5.07,-1.13 -1.08,-1.7 -0.58,-3.97 1.12,-5.06 31.93,-20.36 50.99,-55.1 50.99,-92.91 0,-60.74 -49.4,-110.14 -110.13,-110.14 -60.73,0 -110.13,49.4 -110.13,110.14 0,37.93 19.15,72.73 51.24,93.07 1.71,1.09 2.22,3.35 1.13,5.06 -0.69,1.1 -1.88,1.7 -3.1,1.7z"/>
  <path class="fil3" d="M931.72 217.14c-0.67,0 -1.35,-0.18 -1.96,-0.57 -17.59,-11.15 -37.95,-17.05 -58.89,-17.05 -20.93,0 -41.3,5.9 -58.89,17.05 -1.71,1.09 -3.98,0.58 -5.06,-1.13 -1.08,-1.71 -0.58,-3.97 1.14,-5.06 18.76,-11.9 40.48,-18.19 62.81,-18.19 22.33,0 44.05,6.29 62.82,18.19 1.71,1.09 2.21,3.35 1.13,5.06 -0.7,1.1 -1.89,1.7 -3.1,1.7z"/>
  <path class="fil3" d="M912.94 226.9c-0.54,0 -1.09,-0.12 -1.61,-0.37 -12.65,-6.18 -26.27,-9.3 -40.46,-9.3 -14.19,0 -27.8,3.12 -40.46,9.3 -1.82,0.89 -4.01,0.12 -4.9,-1.69 -0.89,-1.82 -0.13,-4.02 1.69,-4.91 13.66,-6.66 28.35,-10.04 43.67,-10.04 15.32,0 30.01,3.38 43.68,10.04 1.82,0.89 2.57,3.09 1.68,4.91 -0.63,1.3 -1.94,2.06 -3.29,2.06z"/>
 </g>
</svg>
